<?xml version="1.0" standalone="no"?>
<!DOCTYPE svg PUBLIC "-//W3C//DTD SVG 20010904//EN"
 "http://www.w3.org/TR/2001/REC-SVG-20010904/DTD/svg10.dtd">
<svg version="1.0" xmlns="http://www.w3.org/2000/svg"
 width="1000.000000pt" height="1000.000000pt" viewBox="0 0 1000.000000 1000.000000"
 preserveAspectRatio="xMidYMid meet">
<metadata>
Created by potrace 1.14, written by Peter Selinger 2001-2017
</metadata>
<g transform="translate(0.000000,1000.000000) scale(0.100000,-0.100000)"
fill="#000000" stroke="none">
<path d="M0 5000 l0 -5000 5000 0 5000 0 0 5000 0 5000 -5000 0 -5000 0 0
-5000z m2190 1825 c292 -58 532 -166 736 -332 l56 -45 31 29 c85 80 280 197
421 253 442 174 954 159 1376 -41 58 -28 128 -64 155 -82 289 -182 506 -450
605 -745 61 -185 60 -153 60 -1444 l0 -1178 -450 0 -449 0 -3 1168 -3 1167
-27 78 c-69 204 -240 358 -458 414 -87 22 -235 21 -325 -2 -177 -44 -345 -176
-418 -326 -69 -142 -67 -89 -67 -1356 l0 -1143 -450 0 -449 0 -3 1168 -3 1167
-27 78 c-69 204 -240 358 -458 414 -85 21 -235 21 -320 0 -218 -56 -393 -215
-463 -419 -22 -63 -22 -64 -25 -1235 l-2 -1173 -451 0 -450 0 3 1223 3 1222
28 99 c35 126 74 219 134 323 234 401 675 673 1193 737 83 10 418 -2 500 -19z
m6099 1 c534 -100 923 -396 1167 -886 142 -288 214 -621 214 -997 l0 -183
-1295 0 -1295 0 0 -24 c0 -93 48 -297 92 -394 70 -154 194 -284 341 -356 384
-189 890 -115 1164 171 33 35 74 91 90 124 l28 59 401 0 c220 0 403 -3 407 -6
9 -9 -47 -154 -109 -284 -197 -411 -508 -688 -914 -814 -183 -57 -317 -77
-545 -83 -366 -10 -635 41 -915 173 -500 237 -820 689 -925 1304 -22 128 -31
448 -16 586 82 786 568 1382 1282 1573 68 18 212 45 299 55 83 10 448 -3 529
-18z"/>
<path d="M7748 6105 c-174 -33 -308 -103 -429 -224 -126 -127 -215 -295 -235
-448 l-7 -53 847 0 c465 0 846 3 846 6 0 21 -46 178 -69 237 -45 113 -99 196
-186 283 -92 92 -193 149 -330 185 -106 28 -328 35 -437 14z"/>
</g>
</svg>
